<svg width="16" height="13" viewBox="0 0 16 13" fill="none" xmlns="http://www.w3.org/2000/svg">
<path fill-rule="evenodd" clip-rule="evenodd" d="M0 1.69998C0 0.81632 0.716344 0.0999756 1.6 0.0999756H14.4C15.2837 0.0999756 16 0.81632 16 1.69998V11.3C16 12.1837 15.2837 12.9 14.4 12.9H1.6C0.716344 12.9 0 12.1837 0 11.3V1.69998ZM1.2 1.69998C1.2 1.47906 1.37909 1.29998 1.6 1.29998H14.4C14.6209 1.29998 14.8 1.47906 14.8 1.69998V2.39298L8 6.31998L1.2 2.39298V1.69998ZM8.60008 7.35918L14.8 3.7787V11.3C14.8 11.5209 14.6209 11.7 14.4 11.7H1.6C1.37909 11.7 1.2 11.5209 1.2 11.3V3.7787L7.39992 7.35918C7.7712 7.57358 8.2288 7.57358 8.60008 7.35918Z" fill="#101137"/>
</svg>
