<svg width="17" height="17" viewBox="0 0 17 17" fill="none" xmlns="http://www.w3.org/2000/svg">
<path d="M2.27778 0.5C1.29556 0.5 0.5 1.29556 0.5 2.27778V14.7222C0.5 15.7044 1.29556 16.5 2.27778 16.5H14.7222C15.7044 16.5 16.5 15.7044 16.5 14.7222V2.27778C16.5 1.29556 15.7044 0.5 14.7222 0.5H2.27778ZM2.27778 2.27778H14.7222V14.7222H2.27778V2.27778ZM4.74826 3.44792C3.98649 3.44792 3.52951 3.90585 3.52951 4.51562C3.52951 5.1254 3.98654 5.5816 4.67188 5.5816C5.43365 5.5816 5.89062 5.1254 5.89062 4.51562C5.89062 3.90585 5.4336 3.44792 4.74826 3.44792ZM3.59028 6.72222V12.9444H5.83333V6.72222H3.59028ZM7.68403 6.72222V12.9444H9.92708V9.5434C9.92708 8.53096 10.6494 8.38542 10.8663 8.38542C11.0832 8.38542 11.6632 8.60296 11.6632 9.5434V12.9444H13.8333V9.5434C13.8333 7.59051 12.9655 6.72222 11.8802 6.72222C10.7949 6.72222 10.216 7.08361 9.92708 7.59028V6.72222H7.68403Z" fill="#101137"/>
</svg>
